<?xml version="1.0" encoding="UTF-8"?>
<svg version="1.1" xmlns="http://www.w3.org/2000/svg" width="1024" height="1024">
<path d="M0 0 C337.92 0 675.84 0 1024 0 C1024 337.92 1024 675.84 1024 1024 C686.08 1024 348.16 1024 0 1024 C0 686.08 0 348.16 0 0 Z " fill="#FEFEFE" transform="translate(0,0)"/>
<path d="M0 0 C1.10577393 0.20882813 1.10577393 0.20882813 2.23388672 0.421875 C27.2186691 5.28268382 55.15033537 16.09987255 71 37 C74.20630254 42.05339825 76.91633533 47.39211237 79 53 C78.67 53.99 78.34 54.98 78 56 C77.59652344 55.59910156 77.19304687 55.19820313 76.77734375 54.78515625 C62.40717748 41.33028719 44.19736051 34.10425404 25 31 C25.70382812 31.268125 26.40765625 31.53625 27.1328125 31.8125 C48.65067746 40.35222709 66.92615811 54.59642525 84 70 C84.680625 70.6084375 85.36125 71.216875 86.0625 71.84375 C104.31006512 89.07756151 117.81984325 115.84441885 119.1081543 141.12207031 C119.52266252 156.78878911 118.07902021 171.42593873 112 186 C111.34 186.33 110.68 186.66 110 187 C109.89042969 185.94941406 109.78085937 184.89882813 109.66796875 183.81640625 C109.5083234 182.39837989 109.34813792 180.98041426 109.1875 179.5625 C109.11724609 178.87478516 109.04699219 178.18707031 108.97460938 177.47851562 C108.34218554 172.03967062 106.89061776 167.13103295 105 162 C104.87044922 163.74410156 104.87044922 163.74410156 104.73828125 165.5234375 C102.93224905 187.09132393 97.67572635 205.45749828 83 222 C82.45472656 222.639375 81.90945313 223.27875 81.34765625 223.9375 C73.19225127 232.81413127 62.35066881 239.32753762 52.47265625 246.1171875 C36.9559497 256.82247202 19.06130132 269.76705497 14 289 C13.67 289 13.34 289 13 289 C12.29489366 274.27111191 14.33313363 261.33373274 21 248 C4.68075192 261.18570424 -6.57536973 279.9498008 -9 301 C-9.13036439 303.81437711 -9.14021315 306.62053142 -9.125 309.4375 C-9.12886719 310.14970703 -9.13273438 310.86191406 -9.13671875 311.59570312 C-9.12785204 316.47682485 -8.68649945 321.1672618 -8 326 C-21.70195131 325.23878048 -31.85515963 316.48641386 -41 306.875 C-48.83917908 298.97360521 -57.83255351 295.12410776 -68 291 C-86.37279419 283.53439775 -99.71431434 274.22825129 -109 256 C-115.95053156 238.87550195 -116.12738206 222.02935213 -109 205 C-109.33 204.67 -109.66 204.34 -110 204 C-118.4771835 211.51142842 -123.56409195 218.62936172 -128 229 C-138.67407203 225.35981913 -147.6824297 214.32434425 -152.79296875 204.58203125 C-155.82674842 198.08931039 -158.14620609 192.84317619 -158.1875 185.625 C-158.20167969 184.50351562 -158.21585938 183.38203125 -158.23046875 182.2265625 C-158.00225741 179.03160374 -157.27480019 176.90371155 -156 174 C-156.09016033 170.39358684 -156.73670212 169.26329788 -159.3125 166.6875 C-164.17964987 161.82035013 -165.93233073 156.65137633 -167.375 150 C-168.71278996 144.1285885 -171.14005385 140.50712275 -175 136 C-176.905082 132.189836 -176.708091 128.13256558 -176 124 C-174.20071517 120.76498447 -171.71090294 118.4911 -169 116 C-168.0925 115.13375 -167.185 114.2675 -166.25 113.375 C-158.67888075 106.22616926 -150.78040824 99.35698892 -142.26953125 93.34765625 C-135.47222813 88.79591556 -135.47222813 88.79591556 -130.84375 82.32421875 C-130.4069506 79.77338454 -130.4069506 79.77338454 -130.2421875 77.26953125 C-129.58139114 71.07722989 -124.36855917 67.3188847 -119.875 63.5625 C-112.2442451 57.53605476 -104.59763609 51.58540592 -96 47 C-96.495 45.453125 -96.495 45.453125 -97 43.875 C-98.7904839 36.58331917 -99.62877044 27.63012321 -96.5 20.625 C-95.359375 18.7890625 -95.359375 18.7890625 -94 17 C-93.51015625 16.34773438 -93.0203125 15.69546875 -92.515625 15.0234375 C-71.27081523 -9.32349051 -28.2427022 -5.48884349 0 0 Z " fill="#010101" transform="translate(840,317)"/>
<path d="M0 0 C9.70293541 0.4933696 18.49383077 3.61872443 26.625 8.9375 C31.05048292 11.51232643 34.06871895 10.99569242 38.91845703 9.75463867 C48.72823406 7.3523236 58.43128874 6.6804807 68.5 6.75 C69.62019531 6.74226563 70.74039063 6.73453125 71.89453125 6.7265625 C81.17734808 6.74797615 90.26832202 7.632186 99.2421875 10.09765625 C108.81550824 12.64024789 113.88132343 11.54332166 122.48828125 6.86328125 C132.5837716 1.50671963 142.8909485 1.61935991 154 2 C153.78885834 11.02150716 150.96423018 17.55365473 146 25 C146.4846875 25.48726562 146.969375 25.97453125 147.46875 26.4765625 C160.22385458 39.9675385 166.85677378 56.66609746 169 75 C169.25885986 76.95341309 169.25885986 76.95341309 169.52294922 78.94628906 C170.28208062 86.64086474 170.07623431 94.36270992 170.01403427 102.08486748 C169.99171111 104.99571307 169.97782301 107.90649052 169.96633911 110.81739807 C169.93306678 119.08937789 169.89204388 127.36124863 169.82861328 135.63305664 C169.51171508 178.39858669 170.53183256 220.65610799 193.43359375 258.34765625 C195 261 195 261 196 264 C164.49960704 255.15778443 134.22413976 226.9808624 118.1875 199.0625 C114.23330994 191.98441401 111.40555113 184.73644585 109 177 C111.58136071 205.48398022 127.7543739 227.89374642 147 248 C147.52045898 248.55300781 148.04091797 249.10601562 148.57714844 249.67578125 C157.09548823 258.69819495 166.22080824 266.34137844 176.21923828 273.67675781 C178.52778926 275.3921878 180.77053112 277.18339573 183 279 C149.95556818 290.52712738 103.53306874 279.71114023 72.96875 265.125 C59.98693549 258.62416781 48.45820598 250.03650412 38 240 C37.11828125 239.18144531 36.2365625 238.36289062 35.328125 237.51953125 C10.48639597 213.76550505 -4.05916024 180.13054058 -9.57373047 146.58300781 C-9.86689881 144.80653528 -10.19063447 143.03492377 -10.53955078 141.26855469 C-12.60172568 129.56154939 -12.30088291 117.74620453 -12.26074219 105.89697266 C-12.25004496 102.14078552 -12.26066975 98.38507865 -12.2734375 94.62890625 C-12.28651515 73.28838653 -11.96057939 52.55951975 0 34 C1.2684375 32.7315625 1.2684375 32.7315625 2.5625 31.4375 C4.27497337 29.13419325 4.27497337 29.13419325 3.609375 26.73046875 C2.81214273 24.12383187 1.91048247 21.56886127 1 19 C-0.28376441 12.6978838 -0.09463196 6.40342924 0 0 Z " fill="#010101" transform="translate(401,55)"/>
<path d="M0 0 C9.71968643 3.02710851 19.80075069 17.15155968 26.91531789 24.28186125 C28.39216422 25.75827092 29.86923052 27.23446059 31.34649634 28.71045053 C35.38510856 32.74683617 39.42061197 36.78631725 43.45559657 40.82632881 C47.81492732 45.18999034 52.17716038 49.55074884 56.53903615 53.91186613 C64.08922159 61.461528 71.63759571 69.01299641 79.18468511 76.56575292 C87.09637048 84.48336388 95.00909673 92.39993222 102.92320287 100.3151235 C103.41605493 100.8080443 103.90890699 101.30096509 104.41669395 101.80882288 C106.91984566 104.31231294 109.42301585 106.81578451 111.92619316 109.31924897 C129.63667741 127.03183127 147.34484418 144.74672879 165.05163991 162.46299833 C182.24903023 179.66957925 199.44747524 196.87510485 216.64734304 214.07920927 C217.17791168 214.60990944 217.70848033 215.14060961 218.25512681 215.6873916 C223.5835215 221.01710487 228.91193759 226.34679675 234.24036933 231.67647298 C245.09411785 242.53275743 255.94772368 253.38918451 266.80124319 264.24569792 C267.30022434 264.74481636 267.7992055 265.24393481 268.3133073 265.75817806 C301.61047481 299.06453968 334.90430608 332.37423622 368.19763601 365.68443388 C371.50345989 364.58249258 372.15297065 363.82886857 374.30310476 361.21568388 C378.47548279 356.30055015 382.95489408 351.74338831 387.51013601 347.18443388 C388.32031179 346.362012 389.13048757 345.53959013 389.96521413 344.69224638 C390.73929616 343.91623075 391.5133782 343.14021513 392.31091726 342.34068388 C393.00999197 341.63750028 393.70906667 340.93431669 394.42932546 340.2098245 C396.19763601 338.68443388 396.19763601 338.68443388 398.19763601 338.68443388 C398.19763601 338.02443388 398.19763601 337.36443388 398.19763601 336.68443388 C399.47651672 335.42499954 399.47651672 335.42499954 401.36009061 333.88988394 C407.78632419 328.41683669 413.6425699 322.3705336 419.59836233 316.39723295 C420.95656058 315.03875442 422.31498088 313.68049787 423.67360306 312.32244331 C427.39362884 308.60271222 431.11053843 304.879881 434.82694352 301.15653294 C438.84004403 297.13704574 442.8560595 293.12047286 446.87173879 289.1035623 C453.8249326 282.1474848 460.77634854 275.18963476 467.72660863 268.23062605 C477.77714798 258.16752821 487.83092903 248.10767405 497.88559838 238.04870294 C502.57233997 233.35993236 507.25894383 228.67102413 511.94549406 223.98206228 C512.41456845 223.51274687 512.88364284 223.04343147 513.36693161 222.55989438 C524.52176215 211.39925758 535.67501634 200.23704587 546.8280071 189.0745706 C547.3157909 188.58637316 547.80357469 188.09817572 548.30613981 187.59518441 C555.72836524 180.16666088 563.15050856 172.73805531 570.57263601 165.30943388 C578.49820604 157.37693103 586.42380924 149.44446133 594.34949148 141.5120706 C595.08213948 140.77880071 595.08213948 140.77880071 595.82958846 140.03071729 C606.97580272 128.87505894 618.12246478 117.71984855 629.27053678 106.56604666 C629.73869673 106.09764571 630.20685669 105.62924476 630.68920331 105.14664984 C635.82336303 100.00986974 640.95764195 94.8732088 646.09201241 89.73663932 C656.12726818 79.69689444 666.16073672 69.65536964 676.19193561 59.6115713 C683.0564707 52.73863506 689.92275071 45.86744543 696.79043035 38.99765135 C700.7574925 35.02923923 704.72370473 31.05998666 708.68775594 27.08856672 C712.3110108 23.45860173 715.93652228 19.83090712 719.56389804 16.20506023 C720.8808504 14.88783471 722.19694161 13.56974759 723.51211731 12.25074817 C725.28959306 10.46834166 727.0700735 8.68899364 728.85138929 6.91042608 C729.62941604 6.12803004 729.62941604 6.12803004 730.42316049 5.32982802 C734.94886942 0.82318572 734.94886942 0.82318572 739.01013601 0.37193388 C743.04975457 0.76797491 744.49492755 1.67284446 747.19763601 4.68443388 C748.26275595 8.34578369 748.75520258 10.52777064 747.07405049 14.01529467 C744.74746715 17.32478459 742.0382871 20.11613778 739.17500436 22.95316118 C738.56035156 23.57012168 737.94569875 24.18708217 737.3124201 24.82273844 C735.24432143 26.8961457 733.16914563 28.96232144 731.09395254 31.02862638 C729.59775834 32.52569247 728.10200361 34.02319787 726.60665184 35.52110541 C722.49055019 39.64168785 718.36822353 43.75599345 714.24487686 47.86932427 C709.80160375 52.30397576 705.36409614 56.74438974 700.92589223 61.18411344 C693.23370218 68.87735316 685.53788927 76.56695063 677.83952177 84.25400823 C669.7650883 92.31660968 661.69272449 100.38127403 653.6231178 108.44870657 C653.12146649 108.9502204 652.61981517 109.45173424 652.1029623 109.96844546 C649.55536355 112.51536755 647.00780174 115.06232659 644.46025416 117.60929986 C626.41357789 135.65177475 608.36226859 153.68960778 590.30823171 171.72471708 C572.76844938 189.24613218 555.23076785 206.76964568 537.69592702 224.29600614 C536.88524653 225.10629206 536.88524653 225.10629206 536.05818866 225.93294738 C530.63075786 231.35774115 525.20336975 236.78257763 519.77601292 242.2074454 C508.71975441 253.25863141 497.66321098 264.30953234 486.60649526 275.3602609 C486.09812014 275.86836144 485.58974502 276.37646198 485.06596459 276.89995951 C451.11462745 310.83289377 417.15662827 344.7591608 383.19763601 378.68443388 C384.63552245 381.97037701 386.40638996 384.14134337 388.93808687 386.66818708 C389.72151608 387.45498169 390.50494529 388.2417763 391.31211478 389.05241317 C392.17697762 389.91076821 393.04184047 390.76912325 393.93291128 391.65348905 C394.84848045 392.57006151 395.76404962 393.48663396 396.70736331 394.43098134 C399.25021007 396.97636238 401.79925221 399.51545945 404.34932661 402.05359668 C407.09813702 404.79172388 409.84116394 407.53563386 412.58487356 410.27887052 C417.34146084 415.03309411 422.10164402 419.78369256 426.86422193 424.53191465 C433.75825619 431.40526767 440.64628406 438.28461455 447.532764 445.16553536 C458.7162608 456.33977186 469.90384998 467.50990138 481.09436452 478.67710966 C481.76428567 479.34563749 482.43420682 480.01416533 483.12442861 480.70295158 C483.7951656 481.37229304 484.4659026 482.04163451 485.15696496 482.73125905 C494.65535422 492.20990221 504.15278995 501.68949939 513.64905202 511.17027372 C514.31664276 511.83677361 514.9842335 512.50327349 515.67205425 513.18997034 C526.81239064 524.31226879 537.95068722 535.43660851 549.0879423 546.56199235 C555.95548015 553.4219481 562.82508688 560.27982027 569.69740192 567.1349903 C574.40997024 571.83596796 579.12082621 576.53865676 583.83035579 581.24267867 C586.54581559 583.9548153 589.26210947 586.66610296 591.98064649 589.37515539 C594.93230232 592.31653218 597.88003336 595.26181199 600.82744253 598.20744413 C601.68115176 599.05687629 602.534861 599.90630844 603.41444021 600.78148097 C607.64831618 605.01938447 611.70802003 609.33493271 615.61511475 613.87541014 C617.94295377 616.53642719 620.4148666 619.03396979 622.92329824 621.5236215 C623.45464634 622.05511846 623.98599443 622.58661541 624.53344399 623.13421834 C626.28738706 624.88747537 628.04486127 626.63714669 629.80237234 628.38682646 C631.07130299 629.65383503 632.34000402 630.92107363 633.60849416 632.18852323 C636.32652501 634.90340803 639.04609771 637.61673521 641.76688993 640.32885259 C646.06799567 644.61638267 650.36523675 648.90777226 654.66191518 653.19973844 C663.77502374 662.30177562 672.89237011 671.39956246 682.01013601 680.49693388 C691.87183429 690.33660402 701.7327945 700.17700725 711.58890015 710.02227986 C715.8620538 714.29044722 720.13763463 718.55616376 724.41508007 722.8200298 C727.06951052 725.46701557 729.7218807 728.11605833 732.3736881 730.76567167 C733.60557713 731.9956847 734.83833226 733.22483099 736.07200468 734.45305532 C737.75260696 736.12646717 739.43012011 737.80291584 741.10689199 739.48016447 C741.5982238 739.96790132 742.08955561 740.45563816 742.59577626 740.95815492 C748.03146872 746.4104847 748.03146872 746.4104847 748.57263601 750.55943388 C748.1114133 754.40295645 746.86323493 755.94043499 744.19763601 758.68443388 C740.93715972 760.31467202 738.81962566 760.15178738 735.19763601 759.68443388 C733.34573877 758.37632746 733.34573877 758.37632746 731.44704092 756.63668913 C730.74769493 755.99825008 730.04834894 755.35981104 729.32781065 754.70202535 C725.94593904 751.49889111 722.62094749 748.24692643 719.33215749 744.94834989 C718.5912084 744.20915312 717.8502593 743.46995634 717.0868572 742.70835966 C714.66164321 740.28751239 712.24006507 737.86306639 709.81872976 735.43834013 C708.12071993 733.74100483 706.42256176 732.04381793 704.7242626 730.34677213 C701.17477852 726.79875802 697.62709822 723.24895276 694.08069265 719.69786161 C689.54947325 715.16094538 685.01377885 710.62853374 680.47671831 706.09745973 C676.97207186 702.59643784 673.46982428 699.09302403 669.96828306 695.58889669 C668.29737075 693.91732036 666.62572374 692.24647808 664.95331037 690.57640356 C662.61100951 688.2366604 660.27196877 685.89370416 657.93371999 683.54991239 C657.25144842 682.86966505 656.56917684 682.1894177 655.86623037 681.4885568 C651.97663489 677.58198175 648.27637627 673.56814452 644.69456995 669.37687677 C642.87030688 667.31435351 640.89309193 665.54739797 638.76013601 663.80943388 C636.70154226 662.12974638 636.70154226 662.12974638 635.19763601 660.68443388 C635.19763601 660.02443388 635.19763601 659.36443388 635.19763601 658.68443388 C634.63217982 658.44390197 634.06672363 658.20337006 633.48413241 657.9555493 C630.72304868 656.42059997 628.84795621 654.58298574 626.61369359 652.34658712 C625.69307976 651.42995538 624.77246593 650.51332365 623.8239547 649.56891519 C622.80590856 648.54516298 621.78795524 647.52131847 620.77008474 646.49739164 C619.68636166 645.41454049 618.60219927 644.33212884 617.51763499 643.25012022 C614.5349472 640.27191253 611.55854497 637.28749092 608.58311021 634.30203933 C605.37476531 631.08507178 602.16065744 627.87387138 598.94723928 624.66197294 C593.37934522 619.09512848 587.8151299 613.52462869 582.25338399 607.95164198 C574.21199069 599.89400684 566.16509205 591.84188837 558.11683133 583.79111333 C545.0597736 570.72967643 532.0071901 557.66377779 518.95740163 544.59507841 C506.279404 531.89872772 493.59931119 519.20447559 480.91638601 506.51304716 C480.13484406 505.73097976 479.35330211 504.94891237 478.54807708 504.14314596 C474.62736734 500.21982619 470.70661629 496.29654771 466.78584468 492.37328976 C434.25003264 459.81673831 401.72147349 427.25294757 369.19763601 394.68443388 C364.98891955 396.3287377 362.17359571 399.43487036 359.05754316 402.58122438 C358.4423357 403.19442375 357.82712824 403.80762311 357.19327813 404.43940428 C355.11978498 406.50858431 353.05354452 408.58486006 350.98715627 410.66113371 C349.49238035 412.15575367 347.99716357 413.64993284 346.50154257 415.14370716 C342.38256645 419.26014402 338.26986932 423.38280534 334.15812933 427.50646836 C329.72684072 431.94842356 325.28978567 436.38461184 320.85339773 440.82147306 C313.16403314 448.51320274 305.47826393 456.20850734 297.79492223 463.9062528 C289.73449989 471.98172664 281.67180033 480.05491635 273.60611761 488.12513632 C272.85417912 488.87749871 272.85417912 488.87749871 272.08704995 489.64506035 C269.541249 492.1922658 266.99540183 494.73942506 264.44953336 497.28656303 C246.41011335 515.33507547 228.37495825 533.38784392 210.34265554 551.44346708 C209.25193248 552.53559771 208.16120933 553.62772825 207.07048608 554.7198587 C206.53005778 555.2609846 205.98962948 555.80211051 205.43282456 556.35963417 C202.69858795 559.09739967 199.96434903 561.83516285 197.23010671 564.57292265 C196.68790381 565.11582401 196.14570091 565.65872536 195.58706763 566.21807828 C182.98967918 578.83165106 170.39100547 591.44393974 157.79187429 604.05577177 C156.98224028 604.86622495 156.98224028 604.86622495 156.15625002 605.69305093 C143.83925395 618.02248686 131.52166432 630.35132938 119.2029022 642.67900079 C118.68554231 643.19673607 118.16818243 643.71447135 117.63514498 644.24789557 C112.98189907 648.90450748 108.32862933 653.56109557 103.67523326 658.21755742 C92.05758286 669.84286529 80.44142447 681.46965747 68.82889684 693.10008267 C60.73860749 701.20283126 52.64669529 709.3039551 44.55312155 717.40342332 C40.16481936 721.79506919 35.77738209 726.18757093 31.39211309 730.58224577 C27.38380226 734.59913886 23.37324238 738.61377162 19.3608283 742.62656593 C17.903782 744.08458412 16.44759945 745.54346607 14.99233387 747.00326163 C13.0258531 748.97563235 11.05636615 750.94494975 9.08604658 752.91348451 C8.51167094 753.49105885 7.93729531 754.0686332 7.34551436 754.66370979 C2.40581906 759.58699976 2.40581906 759.58699976 -2.67736399 759.99693388 C-5.6632484 759.9427436 -6.64824783 759.78322629 -9.23986399 758.12193388 C-11.51776881 754.56840236 -12.1482108 752.97293433 -11.80236399 748.68443388 C-5.22495115 739.61548649 3.9176583 731.8267402 11.83302724 723.92878813 C13.31356172 722.447817 14.7938762 720.96662591 16.27399093 719.48523527 C20.3217781 715.43522146 24.37266085 711.38831654 28.42407393 707.34193033 C32.80000547 702.97032947 37.17303408 698.59582641 41.54642141 694.22168058 C49.11736419 686.65021422 56.69011357 679.08055921 64.26415098 671.51218885 C72.2040906 663.57817477 80.14298766 655.64311984 88.08050764 647.70668501 C88.57481478 647.2124466 89.06912192 646.7182082 89.57840807 646.20899287 C92.08893817 643.69880112 94.59944979 641.18859088 97.10995429 638.67837353 C114.87245089 620.91797499 132.63726274 603.15989394 150.40344656 585.40318388 C167.65853006 568.15729094 184.91255827 550.91034333 202.16516531 533.66197294 C202.69735953 533.12991024 203.22955376 532.59784754 203.77787508 532.04966173 C209.12259174 526.70626363 214.46728703 521.36284415 219.81196666 516.01940901 C230.69881701 505.13509459 241.58581 494.25092285 252.4728893 483.36683744 C252.97341324 482.8664508 253.47393718 482.36606415 253.9896285 481.85051427 C287.38990737 448.45942955 320.79352115 415.07168106 354.19763601 381.68443388 C352.56919158 378.23781928 350.75036984 376.00424621 348.0233196 373.31480497 C347.16257833 372.46067014 346.30183706 371.60653532 345.41501272 370.72651762 C344.01963781 369.35603773 344.01963781 369.35603773 342.59607351 367.95787138 C341.63428195 367.00489337 340.67307795 366.05132202 339.71243703 365.09718412 C336.67139697 362.07895649 333.62257888 359.06866135 330.57263601 356.05943388 C327.03135971 352.56531357 323.49332229 349.06804064 319.96358526 345.56226057 C318.54722489 344.15889748 317.12482042 342.76164308 315.70236623 341.36445707 C314.84792928 340.51662657 313.99349233 339.66879606 313.11316335 338.79527372 C312.35530538 338.04788938 311.59744741 337.30050504 310.81662405 336.5304727 C309.19763601 334.68443388 309.19763601 334.68443388 309.19763601 332.68443388 C308.6265209 332.43798124 308.05540578 332.1915286 307.46698415 331.93760771 C304.82050472 330.47617537 303.02846637 328.76943369 300.8880657 326.63365263 C300.04749624 325.79938749 299.20692678 324.96512235 298.34088552 324.10557646 C296.99380514 322.75242338 296.99380514 322.75242338 295.61951101 321.37193388 C294.69293691 320.44727323 293.76636281 319.52261259 292.81171072 318.56993192 C290.85505231 316.61621689 288.90204458 314.65894276 286.95154226 312.69908231 C284.44747747 310.18359182 281.93449877 307.67722839 279.41874731 305.17343229 C277.02247657 302.78610747 274.63383451 300.39121199 272.24451101 297.99693388 C271.3383605 297.09483183 270.43220998 296.19272978 269.49860036 295.2632913 C268.25665914 294.01189359 268.25665914 294.01189359 266.9896282 292.73521513 C266.25556753 291.99956327 265.52150686 291.26391142 264.76520193 290.50596708 C263.19763601 288.68443388 263.19763601 288.68443388 263.19763601 286.68443388 C262.53763601 286.68443388 261.87763601 286.68443388 261.19763601 286.68443388 C261.19763601 286.02443388 261.19763601 285.36443388 261.19763601 284.68443388 C260.60466726 284.43048856 260.01169851 284.17654325 259.40076101 283.91490263 C256.95365902 282.54817014 255.70415647 281.16700406 253.94763601 278.99693388 C251.68903396 276.20722491 249.28427722 273.84786197 246.56872976 271.51646513 C241.64000885 267.26884315 237.08528344 262.68152442 232.51013601 258.05943388 C231.68191335 257.2266995 230.8536907 256.39396513 230.00037038 255.53599638 C228.45988366 253.98687602 226.92043673 252.43672034 225.38245046 250.88511747 C221.04144306 246.51257968 216.67174492 242.16949931 212.29484975 237.83294767 C209.14860194 234.71338349 206.00757403 231.58858621 202.86682546 228.46348661 C201.20517609 226.81197224 199.54174757 225.16224609 197.87659109 223.51426786 C195.47242796 221.13422914 193.07466308 218.74790812 190.67810476 216.36021513 C189.92820776 215.6206407 189.17831075 214.88106626 188.4056896 214.11908048 C187.72110174 213.43464369 187.03651388 212.75020689 186.33118093 212.04502958 C185.72449071 211.44278059 185.1178005 210.84053159 184.49272573 210.22003263 C183.19763601 208.68443388 183.19763601 208.68443388 183.19763601 206.68443388 C182.53763601 206.68443388 181.87763601 206.68443388 181.19763601 206.68443388 C179.48404957 205.06604669 177.82686341 203.38771707 176.19763601 201.68443388 C175.09351832 200.62188298 173.98935189 199.55938273 172.88513601 198.49693388 C170.19763601 195.68443388 170.19763601 195.68443388 170.19763601 193.68443388 C169.20763601 193.35443388 168.21763601 193.02443388 167.19763601 192.68443388 C167.19763601 192.02443388 167.19763601 191.36443388 167.19763601 190.68443388 C166.20763601 190.35443388 165.21763601 190.02443388 164.19763601 189.68443388 C161.68548238 187.36552284 159.45983658 185.02800704 157.38513601 182.30943388 C155.54590535 180.10235708 153.83294798 178.45107443 151.65857351 176.61021513 C146.76497643 172.37031539 142.2009184 167.83457955 137.63513601 163.24693388 C136.82367116 162.43933622 136.01220632 161.63173856 135.17615163 160.79966825 C134.37757741 159.99980497 133.5790032 159.19994169 132.75622976 158.37584013 C132.04780935 157.66629179 131.33938894 156.95674345 130.60950124 156.22569364 C128.70890828 154.22313547 126.90912942 152.19565425 125.11438406 150.10118192 C120.3234763 144.5932741 115.1356379 139.47812746 109.97107351 134.32505888 C108.89431859 133.24762871 107.81771202 132.17005027 106.74124563 131.09233183 C104.49883559 128.84845713 102.25465146 126.60637659 100.00915945 124.36558622 C97.13998675 121.50213084 94.27535578 118.63418037 91.41202772 115.76488203 C89.19530565 113.54453861 86.97619778 111.32659196 84.7563709 109.10935301 C83.69914529 108.05279123 82.64265302 106.99549509 81.58692968 105.93743223 C80.11110921 104.45905699 78.63209495 102.98395027 77.15222585 101.50962919 C76.31396261 100.67216154 75.47569936 99.83469389 74.6120342 98.97184843 C72.20583374 96.61650836 72.20583374 96.61650836 69.38797414 94.50785917 C68.66516256 93.90612882 67.94235097 93.30439848 67.19763601 92.68443388 C67.19763601 92.02443388 67.19763601 91.36443388 67.19763601 90.68443388 C66.57888601 90.43693388 65.96013601 90.18943388 65.32263601 89.93443388 C62.84694914 88.47814748 62.24638598 87.30630882 61.19763601 84.68443388 C60.53763601 84.68443388 59.87763601 84.68443388 59.19763601 84.68443388 C57.97107351 83.39927763 57.97107351 83.39927763 56.57263601 81.62193388 C54.4633949 79.062438 52.32832956 76.8462968 49.78308523 74.7242288 C43.7181086 69.48884697 38.1191955 63.77041954 32.45544851 58.11021513 C31.23863147 56.89661713 30.02174178 55.68309198 28.80478323 54.4696359 C26.26990097 51.94070641 23.7370582 49.40975441 21.20544851 46.87754911 C17.96236652 43.6343649 14.71242209 40.39815113 11.46072996 37.16360277 C8.95233042 34.66631171 6.44847882 32.1644991 3.94589269 29.66138357 C2.74900912 28.46567882 1.55050645 27.27159246 0.35034978 26.07917303 C-1.32236483 24.41624889 -2.98863321 22.74711712 -4.65343821 21.07627958 C-5.14796992 20.58736738 -5.64250163 20.09845518 -6.15201914 19.59472746 C-8.58165175 17.14264592 -10.62773283 14.96252934 -11.80236399 11.68443388 C-11.72867233 7.55770101 -11.42897971 5.42497973 -8.73986399 2.24693388 C-5.75491224 0.65919359 -3.41409746 -0.20674153 0 0 Z " fill="#010101" transform="translate(143.80236399173737,96.31556612253189)"/>
<path d="M0 0 C1.66949959 -0.00786278 1.66949959 -0.00786278 3.37272644 -0.0158844 C5.71665619 -0.02227862 8.06061814 -0.02100151 10.40454102 -0.01245117 C13.95973895 -0.00395579 17.51332028 -0.03271829 21.06835938 -0.06445312 C23.35807244 -0.06606594 25.64778831 -0.06548606 27.9375 -0.0625 C29.50840141 -0.07935097 29.50840141 -0.07935097 31.11103821 -0.09654236 C41.8715991 0.00329143 51.05675113 3.50933354 60.4765625 8.48046875 C61.97079086 9.24761917 63.4651814 10.01445377 64.9597168 10.78100586 C65.71940765 11.17432098 66.47909851 11.56763611 67.2618103 11.97286987 C80.92635425 19.03191453 94.54307378 25.57873171 109.16796875 30.43359375 C110.00666504 30.71477051 110.84536133 30.99594727 111.70947266 31.28564453 C113.86109024 32.0053625 116.01389268 32.72127456 118.16796875 33.43359375 C118.59916016 32.49966797 118.59916016 32.49966797 119.0390625 31.546875 C120.64915809 28.53282063 121.99402701 27.71667658 125.16796875 26.43359375 C129.71916259 26.21883687 133.18028174 26.84518447 137.10546875 29.18359375 C139.92309622 32.25736918 141.17166311 34.37213866 141.1640625 38.61328125 C140.69078072 44.75587453 140.69078072 44.75587453 138.48046875 47.62109375 C138.04734375 48.21921875 137.61421875 48.81734375 137.16796875 49.43359375 C138.26503709 53.53758897 139.92911907 57.10202086 141.9765625 60.80859375 C142.54938965 61.85748779 143.1222168 62.90638184 143.71240234 63.98706055 C144.33711426 65.1244165 144.96182617 66.26177246 145.60546875 67.43359375 C152.85337208 80.74555658 159.66098713 94.2607572 166.38061523 107.84570312 C167.14018943 109.37904142 167.90003289 110.91224637 168.66015625 112.4453125 C169.21090569 113.55747635 169.21090569 113.55747635 169.77278137 114.69210815 C172.86879964 120.90978249 176.11009133 127.04575047 179.43234253 133.14543152 C182.16796875 138.22066635 182.16796875 138.22066635 182.16796875 140.43359375 C182.82796875 140.43359375 183.48796875 140.43359375 184.16796875 140.43359375 C183.2038638 149.44071123 177.16976788 156.06323859 170.41796875 161.74609375 C153.8547183 174.08634752 134.9211584 176.60701015 114.77490234 174.140625 C99.35373441 171.58132343 85.59594007 164.03454465 76.29296875 151.43359375 C73.63988775 147.48116784 72.07953503 144.09271031 71.16796875 139.43359375 C71.77753418 139.35608887 72.38709961 139.27858398 73.01513672 139.19873047 C75.30017243 138.61817602 75.30017243 138.61817602 76.47314453 136.60205078 C76.84938965 135.80653809 77.22563477 135.01102539 77.61328125 134.19140625 C78.04503662 133.3001001 78.47679199 132.40879395 78.92163086 131.49047852 C79.37417236 130.52295654 79.82671387 129.55543457 80.29296875 128.55859375 C81.27429661 126.52780166 82.25740024 124.49786679 83.2421875 122.46875 C83.73380371 121.44797363 84.22541992 120.42719727 84.73193359 119.37548828 C86.76927308 115.20174792 88.92362081 111.0956712 91.10546875 106.99609375 C91.92988689 105.4402098 92.75410212 103.88421832 93.578125 102.328125 C93.99723145 101.53744629 94.41633789 100.74676758 94.84814453 99.93212891 C97.76938062 94.40199014 100.65945981 88.85532989 103.53540039 83.30151367 C106.19103986 78.18075268 108.89171541 73.09168405 111.66796875 68.03515625 C112.51512451 66.4713623 112.51512451 66.4713623 113.37939453 64.87597656 C114.46734891 62.8699509 115.56937408 60.87147656 116.68701172 58.88183594 C117.41621826 57.52687012 117.41621826 57.52687012 118.16015625 56.14453125 C118.81540283 54.95802979 118.81540283 54.95802979 119.48388672 53.74755859 C120.3887513 50.68677827 119.58675644 49.21392519 118.16796875 46.43359375 C117.05164063 46.49160156 115.9353125 46.54960938 114.78515625 46.609375 C90.00145228 47.49930839 67.24265555 38.42617912 44.16796875 30.43359375 C44.11599335 31.53021332 44.06401794 32.62683289 44.01046753 33.75668335 C43.4730736 44.51898625 42.57853779 55.19805005 41.42578125 65.91015625 C41.25459782 67.53408276 41.08386354 69.15805667 40.9135437 70.78207397 C40.46800482 75.0213181 40.01757831 79.26002645 39.56567383 83.49859619 C38.76327994 91.031006 37.96896314 98.56427168 37.17578125 106.09765625 C37.08937441 106.91687309 37.00296757 107.73608994 36.91394234 108.58013153 C35.44891724 122.48901452 34.11321837 136.4068766 32.82910156 150.33349609 C31.94748434 159.87393358 30.9722057 169.40408657 29.98046875 178.93359375 C29.80129364 180.66665234 29.62225765 182.39972531 29.44335938 184.1328125 C29.02004906 188.23326538 28.59398911 192.33341812 28.16796875 196.43359375 C33.11796875 196.43359375 38.06796875 196.43359375 43.16796875 196.43359375 C46.35546875 203.18359375 46.35546875 203.18359375 47.32495117 205.28808594 C49.70864658 210.18692275 52.38776529 213.24142041 57.52734375 215.4453125 C63.09479768 217.01911892 68.39741303 217.96822635 74.16796875 218.43359375 C75.58296777 228.33858688 75.16796875 238.42803974 75.16796875 248.43359375 C35.56796875 248.43359375 -4.03203125 248.43359375 -44.83203125 248.43359375 C-44.83203125 238.53359375 -44.83203125 228.63359375 -44.83203125 218.43359375 C-42.52203125 218.18609375 -40.21203125 217.93859375 -37.83203125 217.68359375 C-30.12065694 216.7153197 -24.74335452 215.21258414 -19.08203125 209.80859375 C-16.04427926 205.81317757 -14.5377301 201.10847208 -12.83203125 196.43359375 C-7.55203125 196.43359375 -2.27203125 196.43359375 3.16796875 196.43359375 C2.98738922 195.04447281 2.80680969 193.65535187 2.62075806 192.22413635 C0.59628107 176.45554153 -1.11809906 160.66485541 -2.7283597 144.84911799 C-3.07990381 141.40075383 -3.43415165 137.95266704 -3.78793335 134.50453186 C-4.37975059 128.73213911 -4.96935193 122.95952332 -5.55761719 117.18676758 C-6.23322479 110.55723616 -6.91270791 103.92811025 -7.59415877 97.29917711 C-8.18558254 91.5449916 -8.77490491 85.79059359 -9.36252534 80.03601843 C-9.71074985 76.62585343 -10.05964152 73.21576076 -10.41044998 69.80586052 C-13.18995284 42.74525384 -13.18995284 42.74525384 -13.83203125 30.43359375 C-14.71508438 30.73889511 -15.59813751 31.04419647 -16.50794983 31.35874939 C-61.03117426 46.72491227 -61.03117426 46.72491227 -80.26953125 46.49609375 C-81.00107422 46.49158203 -81.73261719 46.48707031 -82.48632812 46.48242188 C-84.26826544 46.47077523 -86.05015988 46.45284566 -87.83203125 46.43359375 C-89.33420469 49.85531668 -90.07505082 51.66132716 -88.93261719 55.29174805 C-88.39926758 56.27054932 -87.86591797 57.24935059 -87.31640625 58.2578125 C-86.72964111 59.35907471 -86.14287598 60.46033691 -85.53833008 61.5949707 C-84.88650067 62.77049492 -84.23439483 63.94586589 -83.58203125 65.12109375 C-82.92469828 66.34032555 -82.26935838 67.56063388 -81.6159668 68.78198242 C-80.30860686 71.21934374 -78.99123818 73.65078801 -77.66357422 76.07714844 C-75.280485 80.44434527 -72.95714946 84.84131162 -70.64453125 89.24609375 C-70.25104492 89.99012451 -69.85755859 90.73415527 -69.45214844 91.50073242 C-66.32304952 97.43463485 -63.31825579 103.42675436 -60.33203125 109.43359375 C-56.69896856 116.72160893 -53.05978946 124.00595891 -49.33203125 131.24609375 C-48.92275391 132.05884766 -48.51347656 132.87160156 -48.09179688 133.70898438 C-47.70701172 134.44955078 -47.32222656 135.19011719 -46.92578125 135.953125 C-46.59255859 136.60385986 -46.25933594 137.25459473 -45.91601562 137.92504883 C-44.81819542 139.76369653 -44.81819542 139.76369653 -41.83203125 140.43359375 C-44.17583825 150.32966773 -51.73568539 158.65220308 -59.83203125 164.43359375 C-77.64472338 175.1599791 -98.91128918 177.75817907 -119.14453125 172.80859375 C-132.83798733 168.4224086 -143.77057828 160.71017032 -151.7734375 148.671875 C-153.16195665 145.73600241 -153.67091909 143.71144203 -153.83203125 140.43359375 C-152.74253283 137.52395428 -151.15252996 134.95953493 -149.5390625 132.3125 C-148.60204055 130.70369439 -147.66806077 129.09311383 -146.73681641 127.48095703 C-146.25311584 126.64961243 -145.76941528 125.81826782 -145.27105713 124.96173096 C-142.9597946 120.90121413 -140.83584977 116.75013038 -138.71875 112.5859375 C-138.29597778 111.75762421 -137.87320557 110.92931091 -137.43762207 110.07589722 C-136.57158788 108.37686595 -135.7067906 106.67720366 -134.84320068 104.97692871 C-132.57144022 100.50463926 -130.28856849 96.03801904 -128.0078125 91.5703125 C-127.33836609 90.25778 -127.33836609 90.25778 -126.65539551 88.91873169 C-122.86676607 81.49263636 -119.05035953 74.08153638 -115.20703125 66.68359375 C-114.69358154 65.69222412 -114.18013184 64.70085449 -113.65112305 63.67944336 C-111.83954359 60.19793569 -110.03734202 56.76825465 -107.984375 53.421875 C-106.6242747 51.51639696 -106.6242747 51.51639696 -107.01953125 49.37109375 C-107.78226236 47.41824022 -107.78226236 47.41824022 -108.89453125 45.68359375 C-110.31299156 42.279289 -110.39271719 39.02613696 -109.83203125 35.43359375 C-107.60652047 31.06499852 -105.36752248 28.3773757 -100.83203125 26.43359375 C-96.79291033 25.83202255 -95.19803209 26.21829914 -91.64453125 28.30859375 C-90.71640625 29.00984375 -89.78828125 29.71109375 -88.83203125 30.43359375 C-87.84203125 31.09359375 -86.85203125 31.75359375 -85.83203125 32.43359375 C-83.14760595 31.87668501 -80.78123844 31.2059644 -78.20703125 30.30859375 C-77.42360352 30.04071045 -76.64017578 29.77282715 -75.83300781 29.49682617 C-62.27568061 24.64686937 -49.48622086 17.80329305 -36.66015625 11.31640625 C-35.67821289 10.82100342 -34.69626953 10.32560059 -33.68457031 9.81518555 C-31.84439375 8.8836001 -30.00752717 7.94543329 -28.17480469 6.99926758 C-27.33981445 6.57411865 -26.50482422 6.14896973 -25.64453125 5.7109375 C-24.57138672 5.15780884 -24.57138672 5.15780884 -23.4765625 4.59350586 C-15.49868819 1.09434773 -8.72301026 -0.02431086 0 0 Z " fill="#020202" transform="translate(496.83203125,650.56640625)"/>
<path d="M0 0 C7.43639589 6.16158517 12.7992448 14.46499559 14.16015625 24.15234375 C15.18336946 41.19277908 11.36500836 54.68493482 0.02734375 67.6328125 C-10.03076654 76.47134266 -22.70605867 81.57934879 -34.73071289 87.16748047 C-45.01081908 91.96026744 -54.0564738 96.93798368 -62.83984375 104.15234375 C-64.16800619 105.15920139 -65.49937632 106.16192725 -66.83984375 107.15234375 C-69.95822517 105.80349354 -71.59888185 104.45872375 -73.65234375 101.77734375 C-81.99499037 92.02961981 -92.75535635 85.03323347 -103.65234375 78.46484375 C-111.12416071 73.95769596 -117.88018272 69.60968002 -123.83984375 63.15234375 C-124.42636719 62.53488281 -125.01289063 61.91742188 -125.6171875 61.28125 C-132.85677976 52.76720629 -134.56578896 41.79203085 -134.21875 30.921875 C-133.08265642 19.61950069 -129.45666678 7.72324633 -120.4921875 0.17578125 C-113.94468007 -4.31697995 -108.72877377 -5.58102292 -100.83984375 -4.84765625 C-86.43746127 -1.89240842 -76.67331933 5.55096119 -66.83984375 16.15234375 C-66.28039062 15.59546875 -65.7209375 15.03859375 -65.14453125 14.46484375 C-48.45926702 -1.41566497 -21.60285448 -14.0552272 0 0 Z " fill="#FCFCFC" transform="translate(533.83984375,92.84765625)"/>
<path d="M0 0 C6.1771468 3.54558182 10.34188591 8.13498535 12.5625 14.9375 C13.2868654 21.75782357 13.37243818 29.00524726 9.5625 34.9375 C5.01669158 40.23027224 -0.44948804 43.88667113 -7.4375 44.9375 C-9.703125 44.5 -9.703125 44.5 -11.4375 43.9375 C-10.0625 42.4375 -10.0625 42.4375 -8.4375 40.9375 C-7.7775 40.9375 -7.1175 40.9375 -6.4375 40.9375 C-6.16164063 40.37546875 -5.88578125 39.8134375 -5.6015625 39.234375 C-4.81682597 37.6859687 -3.9980183 36.15442352 -3.1484375 34.640625 C-0.12344674 29.08596361 1.51214495 25.26846634 0.5625 18.9375 C-1.06140049 15.80569191 -2.44016026 13.69410256 -5.25 11.5625 C-10.84016718 9.96530938 -15.39422597 10.73963371 -20.3828125 13.4765625 C-26.5214134 17.84127113 -31.22379039 23.74294377 -33.4375 30.9375 C-33.82511 35.03039886 -33.09490638 36.9246038 -30.75 40.25 C-27.89977934 44.74146147 -26.16994073 49.13791308 -24.625 54.1875 C-24.4185083 54.86079346 -24.2120166 55.53408691 -23.99926758 56.2277832 C-19.71543871 70.78488499 -21.39342629 83.37221048 -27.8828125 96.96484375 C-29.00963167 99.0027767 -30.16492356 100.9880212 -31.4375 102.9375 C-32.4375 99.9375 -32.4375 99.9375 -31.5 96.4375 C-28.52367395 85.00758123 -31.19130517 72.42988966 -36.4375 61.9375 C-36.54707031 62.48277344 -36.65664063 63.02804687 -36.76953125 63.58984375 C-38.47299242 71.69167124 -40.24919253 79.30799602 -45.4375 85.9375 C-45.85 86.47890625 -46.2625 87.0203125 -46.6875 87.578125 C-54.53237191 96.64875814 -67.67378358 100.75454405 -78.5859375 104.7890625 C-84.10158558 107.0104331 -89.32200525 109.68010261 -92.4375 114.9375 C-88.99583987 122.65213913 -81.99894897 126.02265573 -74.4375 128.9375 C-75.14261719 129.63230469 -75.84773437 130.32710937 -76.57421875 131.04296875 C-78.51220358 132.97551553 -80.37449397 134.95576089 -82.20703125 136.98828125 C-92.5958585 148.26914783 -104.32118392 153.79863901 -118.66796875 158.734375 C-122.57079854 160.42982151 -125.58782448 162.48091339 -127.75 166.1875 C-127.976875 166.765 -128.20375 167.3425 -128.4375 167.9375 C-131.61900487 166.88159925 -132.41421765 165.97844859 -134.10546875 163.00390625 C-134.60691406 161.84761719 -135.10835937 160.69132813 -135.625 159.5 C-136.13417969 158.34628906 -136.64335938 157.19257812 -137.16796875 156.00390625 C-138.86488316 151.9052053 -139.59532499 148.85314144 -139.625 144.4375 C-139.63917969 143.4784375 -139.65335938 142.519375 -139.66796875 141.53125 C-139.4375 138.9375 -139.4375 138.9375 -137.4375 135.9375 C-128.06645882 134.54181302 -118.8195958 140.08628814 -110.65234375 144.08203125 C-109.92144531 144.36433594 -109.19054687 144.64664063 -108.4375 144.9375 C-107.7775 144.6075 -107.1175 144.2775 -106.4375 143.9375 C-106.22955082 141.14037857 -106.22955082 141.14037857 -107.4375 137.9375 C-115.11883876 129.99128749 -128.88633565 127.11199147 -139.25 124.375 C-143.31563858 123.21338898 -145.23710593 121.66860298 -147.4375 117.9375 C-148.96241998 114.88766004 -148.67312548 112.2951631 -148.4375 108.9375 C-146.8122908 106.4996862 -145.13352691 105.7822797 -142.5 104.4375 C-137.91217789 100.69233909 -137.17314214 96.54495923 -135.4375 90.9375 C-142.3675 90.2775 -149.2975 89.6175 -156.4375 88.9375 C-152.39102335 84.21661058 -148.47618092 79.8670094 -143.9375 75.6875 C-143.33583008 75.13102783 -142.73416016 74.57455566 -142.11425781 74.0012207 C-136.34251541 68.73244443 -130.25682824 63.92826309 -124.05078125 59.18652344 C-120.75111724 56.63188042 -117.54499803 53.95842966 -114.328125 51.30078125 C-112.4375 49.9375 -112.4375 49.9375 -110.4375 49.9375 C-110.52 49.07125 -110.6025 48.205 -110.6875 47.3125 C-110.37022838 43.02933308 -109.05898283 41.31783313 -106.4375 37.9375 C-106.03660156 37.39222656 -105.63570312 36.84695313 -105.22265625 36.28515625 C-97.80652258 26.80540278 -87.33998902 21.47779384 -76.4375 16.9375 C-75.16132812 16.37289063 -75.16132812 16.37289063 -73.859375 15.796875 C-68.43432362 13.87185677 -63.15711995 14.24361827 -57.875 16.375 C-53.14073012 19.48965124 -49.30260665 23.83575417 -45.4375 27.9375 C-45.15777344 27.17566406 -44.87804687 26.41382813 -44.58984375 25.62890625 C-39.77871108 13.2375324 -33.20410303 4.63935413 -21.01953125 -1.2265625 C-14.15093908 -3.4502822 -6.53457462 -3.00986467 0 0 Z " fill="#FDFDFD" transform="translate(832.4375,355.0625)"/>
<path d="M0 0 C3.98244767 1.54872965 6.33221688 4.29556605 9 7.5 C9.47421387 8.06750977 9.94842773 8.63501953 10.43701172 9.21972656 C29.34976216 32.37036842 43.55711168 57.43177946 41 88 C39.02867279 103.66594543 30.9104497 116.12727976 19 126 C10.84467931 131.32831655 2.46636365 131.96922014 -7 131 C-11.1571981 129.58821969 -14.46474884 127.58067785 -18 125 C-18.79019531 124.43152344 -19.58039063 123.86304688 -20.39453125 123.27734375 C-31.43338037 114.41993671 -37.80003655 100.81088168 -40 87 C-42.086593 54.777531 -24.51465339 28.01336596 -4.25 4.546875 C-2.87643787 2.99207898 -1.4669805 1.4669805 0 0 Z " fill="#000000" transform="translate(198,394)"/>
<path d="M0 0 C-5.20613233 34.03614162 -13.2315206 63.9175529 -41.56640625 85.859375 C-56.71728665 96.83876686 -74.83927403 104.7314533 -93 109 C-94.0003125 109.24234375 -95.000625 109.4846875 -96.03125 109.734375 C-103.01081233 111.2185348 -109.88845126 111.20351014 -117 111 C-113.33509912 107.16976525 -109.46776051 103.94972008 -105.25 100.75 C-87.31324705 86.82600111 -76.37360942 69.63083565 -73 47 C-73.01480527 44.9371323 -73.05333747 42.87417574 -73.125 40.8125 C-72.68334527 33.33518272 -67.2375934 28.98783177 -61.953125 24.265625 C-44.6352428 9.62244992 -22.8318058 -0.13140608 0 0 Z " fill="#010101" transform="translate(346,410)"/>
<path d="M0 0 C12.2804318 -0.75186317 24.01553811 2.78415229 35 8 C36.69962891 8.7734375 36.69962891 8.7734375 38.43359375 9.5625 C51.20340243 15.60473149 64.02778131 24.04167196 72 36 C72.36620728 38.78143148 72.64708928 41.52008817 72.875 44.3125 C74.75483132 63.31039086 81.56376346 81.781352 96.73828125 94.25 C99.45272448 96.23233198 102.21116566 98.12432381 105 100 C106.48675222 101.0939314 107.96675541 102.19713979 109.4375 103.3125 C110.03433594 103.76238281 110.63117188 104.21226562 111.24609375 104.67578125 C112.11427734 105.33126953 112.11427734 105.33126953 113 106 C113.73347656 106.50917969 114.46695313 107.01835938 115.22265625 107.54296875 C115.80917969 108.02378906 116.39570313 108.50460937 117 109 C117 109.66 117 110.32 117 111 C88.53096744 113.04567899 57.67114676 98.31734828 36.0859375 80.609375 C33.66563963 78.45962402 31.3246397 76.25226081 29 74 C28.37867187 73.45214844 27.75734375 72.90429688 27.1171875 72.33984375 C8.94456093 55.75630336 3.26422701 27.38035766 0 4 C0 2.68 0 1.36 0 0 Z " fill="#010101" transform="translate(52,410)"/>
<path d="M0 0 C8.47826236 3.96423871 18.22333903 2.65738733 26.84765625 -0.25 C28.55099803 -0.91223381 30.21980884 -1.66272967 31.875 -2.4375 C36.97314501 -3.47793776 41.23593608 -2.13691064 45.9375 -0.0625 C51.18600039 3.51781136 56.03527957 7.72357992 57.9375 13.9375 C59.04956435 21.56512087 56.89116069 26.63156092 52.640625 32.828125 C44.89401346 42.65114788 32.90363998 49.45245404 22.5234375 56.18359375 C19.85173482 57.91550089 19.85173482 57.91550089 17.3515625 60.22265625 C14.9375 61.9375 14.9375 61.9375 13.02856445 61.70874023 C10.70925059 60.85331554 9.0515846 59.78398609 7.06640625 58.3125 C6.33333252 57.77512207 5.60025879 57.23774414 4.8449707 56.68408203 C3.68421021 55.81952393 3.68421021 55.81952393 2.5 54.9375 C0.88112134 53.74615418 -0.73867665 52.55605664 -2.359375 51.3671875 C-3.15666016 50.78163086 -3.95394531 50.19607422 -4.77539062 49.59277344 C-7.35342574 47.72694529 -9.97358406 45.93595655 -12.61547852 44.16235352 C-21.67093294 38.06902683 -28.20801649 32.39724381 -32.0625 21.9375 C-33.06180269 16.34140495 -31.37244571 12.19673324 -28.74609375 7.30859375 C-25.12587793 2.21005315 -20.13170023 -0.24195508 -14.4375 -2.5 C-8.87894764 -3.42642539 -4.92017852 -2.55558256 0 0 Z " fill="#010101" transform="translate(186.0625,531.0625)"/>
<path d="M0 0 C22.24487954 -0.70843565 43.90195779 12.9962172 60 27 C60.95519531 27.81017578 60.95519531 27.81017578 61.9296875 28.63671875 C67.89524173 34.09368886 71.94800115 41.08495615 76 48 C76.35143066 48.58185059 76.70286133 49.16370117 77.06494141 49.76318359 C82.48281698 58.91088806 82.48281698 58.91088806 81.390625 63.63671875 C80.1116038 66.02501451 78.75039377 67.93501933 77 70 C76.27554688 70.9075 75.55109375 71.815 74.8046875 72.75 C74.20914063 73.4925 73.61359375 74.235 73 75 C72.32195312 74.21496094 71.64390625 73.42992187 70.9453125 72.62109375 C61.65414447 62.04855948 52.6573993 55.30763902 39 51 C38.34 51 37.68 51 37 51 C35.18887964 61.64938772 33.46273421 72.29622733 32 83 C30.5459375 81.7625 30.5459375 81.7625 29.0625 80.5 C28.41796875 79.95214844 27.7734375 79.40429688 27.109375 78.83984375 C25.69919746 77.60985556 24.31338399 76.35138373 22.953125 75.06640625 C18.73007368 71.11307536 14.80477363 68.29925558 9.625 65.6875 C5.32838362 63.26656387 3.24971065 61.73495962 1.875 56.9375 C1.5715055 54.96011252 1.28152308 52.98063497 1 51 C0.82960205 49.98365479 0.6592041 48.96730957 0.48364258 47.92016602 C-0.84835498 39.59533569 -1.28436407 31.44525799 -1.20581055 23.02880859 C-1.18726091 20.9735092 -1.18530387 18.91865671 -1.18554688 16.86328125 C-1.16020444 11.11336379 -1.07834761 5.66226614 0 0 Z " fill="#010101" transform="translate(91,349)"/>
<path d="M0 0 C3.0325695 16.10604226 1.99197363 35.02754941 -0.5 51.1875 C-0.62334717 52.11747803 -0.74669434 53.04745605 -0.8737793 54.00561523 C-1.52012247 57.58115208 -2.01438303 60.09937842 -4.75244141 62.60131836 C-6.78511976 63.89172113 -8.82718153 64.96615895 -11 66 C-18.32787296 70.30991977 -24.24097843 74.85598821 -30.1015625 81.05859375 C-30.72804688 81.69925781 -31.35453125 82.33992188 -32 83 C-32.33 83 -32.66 83 -33 83 C-33.12117188 81.87464844 -33.24234375 80.74929688 -33.3671875 79.58984375 C-34.44236836 69.70553523 -35.63455876 59.84860809 -37 50 C-57.50559157 58.11535896 -57.50559157 58.11535896 -72 74 C-75.51839831 72.82720056 -76.16780719 71.85678097 -78.25 68.875 C-78.79140625 68.12992187 -79.3328125 67.38484375 -79.890625 66.6171875 C-81.43639974 62.97046541 -80.93359824 60.824477 -80 57 C-78.91440368 54.46324941 -77.82342524 52.15038263 -76.5 49.75 C-75.97031616 48.77546875 -75.97031616 48.77546875 -75.42993164 47.78125 C-71.96265534 41.60233709 -67.76251679 36.24225749 -63 31 C-62.46117187 30.37996094 -61.92234375 29.75992187 -61.3671875 29.12109375 C-47.50540672 14.10996933 -20.91803806 -1.00536307 0 0 Z " fill="#010101" transform="translate(307,349)"/>
<path d="M0 0 C11.14883231 2.44017693 19.86783667 6.9263534 28.98046875 13.65234375 C21.81105111 31.18219152 -4.52424613 44.80268786 -20.9609375 51.8125 C-37.57331548 58.57420454 -55.4548206 63.88854289 -73.51953125 63.71484375 C-74.74671875 63.70582031 -75.97390625 63.69679688 -77.23828125 63.6875 C-78.15609375 63.67589844 -79.07390625 63.66429687 -80.01953125 63.65234375 C-80.10589844 63.04648437 -80.19226563 62.440625 -80.28125 61.81640625 C-81.41605145 55.04924163 -83.71674097 49.63649338 -87.01953125 43.65234375 C-87.34953125 42.99234375 -87.67953125 42.33234375 -88.01953125 41.65234375 C-87.46716797 41.5322998 -86.91480469 41.41225586 -86.34570312 41.28857422 C-59.61629399 35.40345369 -31.79015023 25.97641807 -12.95703125 5.08984375 C-8.738406 0.78402911 -6.03227473 -0.62109458 0 0 Z " fill="#010101" transform="translate(332.01953125,487.34765625)"/>
<path d="M0 0 C1.80859375 1.58203125 1.80859375 1.58203125 3.4375 3.8125 C21.39812481 25.38550611 52.43025414 36.09968402 79 42 C78.65066406 42.75023437 78.30132812 43.50046875 77.94140625 44.2734375 C74.98268297 50.92846947 73.17759298 56.70254312 73 64 C37.70026754 65.90238079 1.89862526 50.15765814 -24 27 C-25.49968361 25.72879331 -26.99963506 24.45790246 -28.5 23.1875 C-31.71014276 20.37182394 -34.37432228 17.36414958 -37 14 C-28.65493982 4.822416 -12.39283661 -1.05132033 0 0 Z " fill="#010101" transform="translate(74,487)"/>
<path d="M0 0 C13.30398478 12.89202168 24.03376123 28.50123172 30.6875 45.8125 C30.9438623 46.47628662 31.20022461 47.14007324 31.46435547 47.82397461 C32.68605517 51.24553228 33.53631184 53.62827135 32 57 C30.77671927 59.09105425 29.49913032 61.15070116 28.1875 63.1875 C24.94714393 68.29901705 22.28117099 73.39212131 20 79 C15.77460796 74.83924111 11.72370997 70.5313099 7.6875 66.1875 C7.04232422 65.49462891 6.39714844 64.80175781 5.73242188 64.08789062 C4.15412839 62.39268651 2.57667698 60.69670746 1 59 C-6.61712504 62.63609745 -11.68322515 69.60574253 -16.5546875 76.3125 C-17.03164062 76.869375 -17.50859375 77.42625 -18 78 C-18.66 78 -19.32 78 -20 78 C-20.51949219 76.9378125 -21.03898438 75.875625 -21.57421875 74.78125 C-21.91050293 74.10054443 -22.24678711 73.41983887 -22.59326172 72.71850586 C-23.32612446 71.23266835 -24.05296925 69.74384823 -24.77392578 68.25219727 C-26.66745207 64.39851904 -28.54246607 61.19236547 -31.375 57.9375 C-32.53125 56.1484375 -32.53125 56.1484375 -33 54 C-31.79472158 48.61554968 -29.46125051 43.89393498 -27 39 C-26.6606543 38.29568848 -26.32130859 37.59137695 -25.97167969 36.86572266 C-19.22443541 22.88748134 -10.54628644 11.40059456 0 0 Z " fill="#010101" transform="translate(199,323)"/>
<path d="M0 0 C6.11030319 2.56790759 8.74402594 8.08352035 11.2734375 13.95703125 C16.0027536 27.55800771 15.22741058 41.48832619 9.40625 54.5859375 C4.79369456 64.01692227 -1.32208011 71.96004892 -8 80 C-26.14762124 102.03389639 -40.210402 124.06348673 -38.25830078 153.75927734 C-37.71628009 158.46122996 -36.3401243 162.85041952 -34.77734375 167.3125 C-34 170 -34 170 -35 173 C-46.32875486 157.23317623 -49.63442439 142.18998492 -48 123 C-47.15631479 117.97568228 -45.28328935 113.53873371 -43 109 C-42.14535156 107.28490234 -42.14535156 107.28490234 -41.2734375 105.53515625 C-36.91185991 97.22897569 -31.35493191 89.99472315 -25.43212891 82.75439453 C-0.99174026 53.02834244 -0.99174026 53.02834244 5 16 C3.95753333 10.39340043 2.73283506 5.03792203 0 0 Z " fill="#FAFAFA" transform="translate(828,422)"/>
<path d="M0 0 C5.75708091 4.47387613 9.41439064 9.35460444 10.34765625 16.7578125 C10.71851911 24.19408837 9.45197587 29.95649653 5 36 C-0.32396598 41.368518 -5.8829614 43.54255127 -13.375 44.375 C-20.63267023 43.62420653 -26.96399339 40.27023947 -32 35 C-36.3144084 28.46790504 -37.00502192 21.66329214 -36 14 C-34.17350921 7.28764636 -29.56713255 2.92526338 -24 -1 C-16.67542969 -4.66228516 -7.04989787 -4.13925539 0 0 Z " fill="#010101" transform="translate(525,601)"/>
<path d="M0 0 C0.66 0 1.32 0 2 0 C2.51046875 1.11632812 3.0209375 2.23265625 3.546875 3.3828125 C8.12501624 13.27798917 13.04832956 22.8967698 18.33374023 32.43188477 C22.72141087 40.3877957 26.79996496 48.47779119 30.82446289 56.62231445 C34.03240749 63.10522574 37.35663033 69.49398273 40.890625 75.8046875 C42 78 42 78 42 80 C28.47 80 14.94 80 1 80 C-0.30852397 53.33882411 -0.09810889 26.68673087 0 0 Z " fill="#F9F9F9" transform="translate(628,710)"/>
<path d="M0 0 C0.33 0 0.66 0 1 0 C1 26.4 1 52.8 1 80 C-12.86 80 -26.72 80 -41 80 C-35.96499607 69.92999214 -30.92088532 59.87449308 -25.75 49.875 C-25.4321756 49.25947266 -25.1143512 48.64394531 -24.78689575 48.00976562 C-19.97680969 38.7008282 -15.01793346 29.48482455 -9.953125 20.31152344 C-6.30954129 13.67283318 -2.99294338 6.95728066 0 0 Z " fill="#FBFBFB" transform="translate(394,710)"/>
<path d="M0 0 C0.33 0 0.66 0 1 0 C1 26.07 1 52.14 1 79 C-12.86 79 -26.72 79 -41 79 C-39.3712065 74.92801625 -37.56903165 71.13634013 -35.5078125 67.28515625 C-35.16580307 66.64156662 -34.82379364 65.99797699 -34.47142029 65.33488464 C-33.35853942 63.24269748 -32.24183484 61.15257875 -31.125 59.0625 C-30.3513546 57.60976789 -29.57783667 56.15696789 -28.80444336 54.70410156 C-24.44413159 46.52284863 -20.03153598 38.37246167 -15.5625 30.25 C-10.09161119 20.30607509 -4.98798349 10.19356358 0 0 Z " fill="#FCFCFC" transform="translate(621,711)"/>
<path d="M0 0 C2.03631445 2.59785571 3.68241691 5.13295366 5.12890625 8.09765625 C5.51860596 8.88873779 5.90830566 9.67981934 6.30981445 10.49487305 C6.72320068 11.34218994 7.13658691 12.18950684 7.5625 13.0625 C10.89789934 19.81578246 14.28636138 26.5317248 17.8125 33.1875 C21.81910595 40.75669533 25.79620817 48.34055933 29.75 55.9375 C30.28085205 56.95545654 30.8117041 57.97341309 31.35864258 59.0222168 C31.87450928 60.01390869 32.39037598 61.00560059 32.921875 62.02734375 C33.37143555 62.89093506 33.82099609 63.75452637 34.28417969 64.64428711 C36.8920582 69.74464144 39.43817859 74.87635719 42 80 C28.47 80 14.94 80 1 80 C0.12515336 53.31717751 -0.12215977 26.69472781 0 0 Z " fill="#FCFCFC" transform="translate(401,710)"/>
<path d="M0 0 C10.48348339 7.58960516 16.8442253 22.52953041 19 35 C20.67452938 60.69641442 14.78738078 80.530929 -2 100 C-5.66402217 104.01297666 -9.5667715 107.6517601 -13.6875 111.1875 C-27.11158851 122.81111905 -43.09766579 137.65191016 -46 156 C-46.33 156 -46.66 156 -47 156 C-48.19852617 137.52272153 -40.35269851 123.55939866 -28.54711914 110.00024414 C-25.62124255 106.70960188 -22.60306814 103.5632697 -19.4375 100.5 C-3.78717085 85.16154335 8.87110026 65.40242358 9.3125 42.9375 C9.35476395 29.60713583 6.63013474 16.1893829 0.953125 4.1171875 C0 2 0 2 0 0 Z " fill="#FAFAFA" transform="translate(863,424)"/>
<path d="M0 0 C2.99958091 7.71304538 3.46910874 14.94652837 3.39111328 23.17504883 C3.37516594 25.1667757 3.39248704 27.15867828 3.41015625 29.15039062 C3.34411245 51.44017291 -3.44861191 68.17495752 -18 85 C-19 83 -19 83 -18.4765625 81.01171875 C-18.19554687 80.24472656 -17.91453125 79.47773438 -17.625 78.6875 C-12.24850989 63.88959031 -13.22323661 44.21109737 -19.81640625 30.01171875 C-24.56640854 19.54023375 -24.56640854 19.54023375 -22.88671875 14.97265625 C-20.78914196 12.26413477 -18.6461319 10.17139685 -16 8 C-15.28714844 7.38382812 -14.57429687 6.76765625 -13.83984375 6.1328125 C-9.58804817 2.70843764 -5.6041224 0 0 0 Z " fill="#030303" transform="translate(262,414)"/>
<path d="M0 0 C7.53599451 0.32068062 12.75389657 3.7908541 18.05859375 9.03515625 C23.84651261 15.47286226 23.84651261 15.47286226 25 19 C24.2421875 21.33984375 24.2421875 21.33984375 22.875 23.9375 C13.14733886 43.7383403 13.02017124 63.15068634 19 84 C14.63470383 80.6271021 11.38899177 77.25733251 8.4375 72.5625 C8.05400391 71.95921875 7.67050781 71.3559375 7.27539062 70.734375 C0.85669733 60.24290677 -2.14921236 49.13004054 -2.16796875 36.85546875 C-2.17129715 36.08624588 -2.17462555 35.31702301 -2.17805481 34.52449036 C-2.18309624 32.90329583 -2.185464 31.28209103 -2.18530273 29.66088867 C-2.18748411 27.20538869 -2.20565525 24.75034227 -2.22460938 22.29492188 C-2.25136472 14.59026575 -2.19150325 7.4580407 0 0 Z " fill="#020202" transform="translate(135,414)"/>
<path d="M0 0 C4.75814358 2.66873921 8.00029965 6.12589896 9.75 11.375 C10.36744782 17.54947823 8.96422854 22.16965643 5.75 27.375 C0.80376732 33.14769181 -5.27519865 35.94912843 -12.75 36.75 C-19.00245239 36.08009439 -23.4444241 34.67637536 -27.6875 29.875 C-31.57508367 25.04465081 -31.78664276 20.37095086 -31.25 14.375 C-28.99059155 7.31434859 -23.06595364 2.96217387 -16.8125 -0.5625 C-10.84953123 -2.34092928 -5.75468779 -2.59015138 0 0 Z " fill="#040404" transform="translate(513.25,113.625)"/>
<path d="M0 0 C6.03830962 3.41095353 10.71540927 8.53685281 12.921875 15.15625 C13.42891984 20.45112804 13.57035241 24.81125981 11.234375 29.65625 C7.40571898 33.79533759 4.74563067 35.3261789 -0.890625 35.59375 C-6.02778905 35.39528601 -10.03464664 34.42047129 -14.078125 31.15625 C-18.98226366 25.33325312 -21.53716704 20.02656159 -21.421875 12.31640625 C-20.77701066 8.26402011 -18.74057867 5.21210052 -16.078125 2.15625 C-11.12785834 -1.36393963 -5.65932434 -2.29777078 0 0 Z " fill="#030303" transform="translate(439.078125,112.84375)"/>
<path d="M0 0 C16.20706575 7.5947909 26.8843566 23.46598422 33.44921875 39.55078125 C39.85013482 59.74174107 36.57658648 80.90113281 27.08203125 99.40795898 C24.37647578 104.49037534 21.40762796 109.35323461 18 114 C18 110.30512239 19.1659804 107.31267391 20.375 103.875 C29.44777616 77.265753 28.27669874 48.52031698 16.08886719 23.09960938 C12.2424445 15.47067133 7.63338005 8.94976685 1.6875 2.79296875 C0 1 0 1 0 0 Z " fill="#F8F8F8" transform="translate(888,392)"/>
<path d="M0 0 C0 3.91378776 -1.1704388 4.60942788 -3.75 7.5 C-18.25303281 24.7753345 -30.17709817 45.20066652 -30.6875 68.125 C-30.73874023 69.7028125 -30.73874023 69.7028125 -30.79101562 71.3125 C-30.87254632 73.87489313 -30.94199728 76.43698497 -31 79 C-33.25880998 76.07983022 -34.78868088 73.45128087 -36.125 70 C-36.45757813 69.154375 -36.79015625 68.30875 -37.1328125 67.4375 C-41.00239354 56.56083978 -39.35899148 45.72339538 -34.8515625 35.359375 C-27.46147053 20.40832189 -13.53373708 9.22754801 0 0 Z " fill="#F6F6F6" transform="translate(786,490)"/>
<path d="M0 0 C0.68191406 0.00515625 1.36382813 0.0103125 2.06640625 0.015625 C6.49702772 0.08313923 10.75211741 0.54211822 15.125 1.25 C14.79979823 4.17681594 14.35560179 5.94560564 12.5625 8.3125 C6.9206147 12.7970755 0.07112048 15.14088139 -6.6875 17.4375 C-7.81188477 17.82711914 -7.81188477 17.82711914 -8.95898438 18.22460938 C-11.92526592 19.25048154 -14.897404 20.257468 -17.875 21.25 C-17.606875 20.5075 -17.33875 19.765 -17.0625 19 C-15.85777293 15.41005145 -15.85777293 15.41005145 -15.25 12.28515625 C-15.023125 11.22167969 -14.79625 10.15820312 -14.5625 9.0625 C-14.36011719 8.03769531 -14.15773438 7.01289063 -13.94921875 5.95703125 C-12.875 3.25 -12.875 3.25 -10.76171875 1.40234375 C-7.12034797 -0.0512481 -3.85336567 -0.11524084 0 0 Z " fill="#040404" transform="translate(740.875,402.75)"/>
<path d="M0 0 C4.9721527 3.83240423 5.48732977 11.31444636 7 17 C9.64 11.72 12.28 6.44 15 1 C15.33 1 15.66 1 16 1 C16.9987374 15.20426521 13.85045839 27.97376587 6 40 C3.3088099 37.3088099 2.84195536 34.33343149 1.9375 30.75 C1.76412109 30.09386719 1.59074219 29.43773437 1.41210938 28.76171875 C-0.19812142 22.5552353 -1.14002292 16.78978588 -1.125 10.375 C-1.12757813 9.26898438 -1.13015625 8.16296875 -1.1328125 7.0234375 C-1.0214448 4.4881845 -0.74088772 2.41082513 0 0 Z " fill="#040404" transform="translate(458,146)"/>
<path d="M0 0 C2.375 0.8125 2.375 0.8125 4.375 2.8125 C4.918379 8.78966895 4.918379 8.78966895 3.3125 11.8125 C0.11169949 13.46452607 -2.25141327 12.73256911 -5.625 11.8125 C-7.60687369 9.50031402 -7.64734293 8.27053016 -7.5 5.25 C-6.08831177 1.31743994 -4.23963484 -0.30283106 0 0 Z " fill="#F8F8F8" transform="translate(503.625,122.1875)"/>
<path d="M0 0 C-2.40975574 1.60650383 -4.51529462 2.752132 -7.1328125 3.91796875 C-16.76066425 8.28582961 -25.43564867 12.43564867 -33 20 C-33.08296289 16.68148422 -32.47336211 14.58797763 -30.38671875 11.99609375 C-22.28220598 4.18790686 -11.253153 -0.25575348 0 0 Z " fill="#EDEDED" transform="translate(805,330)"/>
<path d="M0 0 C1.8125 1.125 1.8125 1.125 3 3 C3.39769128 6.18153026 3.55198782 8.12844028 1.8125 10.875 C-0.65507108 12.40659584 -2.14519831 12.42822025 -5 12 C-6.8125 10.875 -6.8125 10.875 -8 9 C-8.39769128 5.81846974 -8.55198782 3.87155972 -6.8125 1.125 C-4.34492892 -0.40659584 -2.85480169 -0.42822025 0 0 Z " fill="#F6F6F6" transform="translate(442,122)"/>
<path d="M0 0 C0.66 0.33 1.32 0.66 2 1 C1.42365861 5.75481646 -0.55068521 8.97048212 -3 13 C-4.41687119 8.74938644 -3.19320039 6.28148375 -2 2 C-1.34 2 -0.68 2 0 2 C0 1.34 0 0.68 0 0 Z " fill="#EFEFEF" transform="translate(804,445)"/>
<path d="M0 0 C2.15377564 2.62198774 3.40072174 4.64404172 4 8 C3.01 8.66 2.02 9.32 1 10 C-0.60725635 6.78548731 -0.05748185 3.56387464 0 0 Z " fill="#F3F3F3" transform="translate(944,477)"/>
<path d="M0 0 C2.15377564 2.62198774 3.40072174 4.64404172 4 8 C2.35 8 0.7 8 -1 8 C-0.67 5.36 -0.34 2.72 0 0 Z " fill="#1A1A1A" transform="translate(795,415)"/>
<path d="M0 0 C0.66 0 1.32 0 2 0 C4.125 4.625 4.125 4.625 3 8 C0.9375 5.6875 0.9375 5.6875 -1 3 C-0.67 2.01 -0.34 1.02 0 0 Z " fill="#EFEFEF" transform="translate(790,587)"/>
</svg>
